<svg xmlns="http://www.w3.org/2000/svg" width="96" height="32" viewBox="0 0 96 32">
  <!-- Train body -->
  <rect x="0" y="16" width="80" height="16" fill="#ff5722"/>
  <rect x="80" y="16" width="16" height="16" fill="#e64a19"/>
  
  <!-- Windows -->
  <rect x="4" y="20" width="8" height="8" fill="#ffeb3b"/>
  <rect x="20" y="20" width="8" height="8" fill="#ffeb3b"/>
  <rect x="36" y="20" width="8" height="8" fill="#ffeb3b"/>
  <rect x="52" y="20" width="8" height="8" fill="#ffeb3b"/>
  <rect x="68" y="20" width="8" height="8" fill="#ffeb3b"/>
  <rect x="84" y="20" width="8" height="8" fill="#ffeb3b"/>
  
  <!-- Chimney -->
  <rect x="0" y="12" width="4" height="4" fill="#ff5722"/>
  <rect x="92" y="12" width="4" height="4" fill="#e64a19"/>
  
  <!-- Wheels -->
  <circle cx="12" cy="32" r="4" fill="#424242"/>
  <circle cx="28" cy="32" r="4" fill="#424242"/>
  <circle cx="44" cy="32" r="4" fill="#424242"/>
  <circle cx="60" cy="32" r="4" fill="#424242"/>
  <circle cx="76" cy="32" r="4" fill="#424242"/>
  
  <!-- Smoke -->
  <circle cx="96" cy="8" r="3" fill="#ffffff" opacity="0.7">
    <animate attributeName="cx" values="96;100;104" dur="0.5s" repeatCount="indefinite" />
    <animate attributeName="cy" values="8;4;0" dur="0.5s" repeatCount="indefinite" />
    <animate attributeName="r" values="3;4;5" dur="0.5s" repeatCount="indefinite" />
    <animate attributeName="opacity" values="0.7;0.4;0.1" dur="0.5s" repeatCount="indefinite" />
  </circle>
  <circle cx="96" cy="8" r="2" fill="#ffffff" opacity="0.5">
    <animate attributeName="cx" values="96;102;108" dur="0.7s" repeatCount="indefinite" />
    <animate attributeName="cy" values="8;2;-4" dur="0.7s" repeatCount="indefinite" />
    <animate attributeName="r" values="2;3;4" dur="0.7s" repeatCount="indefinite" />
    <animate attributeName="opacity" values="0.5;0.3;0.1" dur="0.7s" repeatCount="indefinite" />
  </circle>
</svg>
